<svg width="20" height="20" xmlns="http://www.w3.org/2000/svg" fill="none">
  <path stroke="null" fill-rule="evenodd" clip-rule="evenodd" d="m15.47138,-0.13503c2.02576,0 3.80964,1.93066 3.80964,3.95463l0,12.21585c-0.42836,1.8862 -1.35862,3.16885 -3.38438,4.09958l-12.50978,-0.27558c-2.59273,-0.44859 -3.66788,-1.80003 -3.66788,-3.824l0,-12.21585c0,-1.01199 0.46546,-2.00064 1.18413,-2.73631c0.35934,-0.36783 0.78196,-0.67242 1.24138,-0.88503c0.2297,-0.10632 0.46861,-0.18964 0.71338,-0.24638c0.12239,-0.02837 0.24624,-0.0501 0.37116,-0.06474c0.06245,-0.00732 0.12517,-0.01286 0.18811,-0.01657l12.05425,-0.0056z" fill="#3F51B5" id="svg_1"/>
  <path d="m6.86916,9.24408c-0.39305,-0.40739 -1.0262,-0.40308 -1.41419,0.00961c-0.38798,0.4127 -0.38388,1.07748 0.00916,1.48488l2.54096,2.6337c0.41802,0.4333 1.09999,0.3967 1.47387,-0.079l4.1257,-5.24999c0.3515,-0.44729 0.2911,-1.10908 -0.1349,-1.47816c-0.426,-0.36907 -1.0563,-0.30567 -1.4078,0.14162l-3.42988,4.36463l-1.76292,-1.82729z" fill="white" id="svg_2"/>
</svg>